<svg xmlns="http://www.w3.org/2000/svg" xmlns:xlink="http://www.w3.org/1999/xlink" version="1.1" width="256" height="256" viewBox="0 0 256 256" xml:space="preserve">
<g style="stroke: none; stroke-width: 0; stroke-dasharray: none; stroke-linecap: butt; stroke-linejoin: miter; stroke-miterlimit: 10; fill: none; fill-rule: nonzero; opacity: 1;" transform="translate(1.4065934065934016 1.4065934065934016) scale(2.81 2.81)">
	<path d="M 25.459 51.425 c -0.182 -0.32 -0.178 -0.712 0.009 -1.028 l 5.439 -9.172 c -1.386 -0.655 -2.928 -1.032 -4.559 -1.032 c -5.914 0 -10.725 4.812 -10.725 10.725 s 4.812 10.725 10.725 10.725 c 5.568 0 10.156 -4.267 10.673 -9.702 H 26.348 C 25.981 51.941 25.642 51.745 25.459 51.425 z" style="stroke: none; stroke-width: 1; stroke-dasharray: none; stroke-linecap: butt; stroke-linejoin: miter; stroke-miterlimit: 10; fill: rgb(0,0,0); fill-rule: nonzero; opacity: 1;" transform=" matrix(1 0 0 1 0 0) " stroke-linecap="round"/>
	<path d="M 32.666 42.271 l -4.522 7.625 h 8.877 C 36.723 46.767 35.072 44.034 32.666 42.271 z" style="stroke: none; stroke-width: 1; stroke-dasharray: none; stroke-linecap: butt; stroke-linejoin: miter; stroke-miterlimit: 10; fill: rgb(0,0,0); fill-rule: nonzero; opacity: 1;" transform=" matrix(1 0 0 1 0 0) " stroke-linecap="round"/>
	<path d="M 39.067 49.896 h 4.868 l -6.646 -15.42 l -3.575 6.028 C 36.715 42.634 38.757 46.021 39.067 49.896 z" style="stroke: none; stroke-width: 1; stroke-dasharray: none; stroke-linecap: butt; stroke-linejoin: miter; stroke-miterlimit: 10; fill: rgb(0,0,0); fill-rule: nonzero; opacity: 1;" transform=" matrix(1 0 0 1 0 0) " stroke-linecap="round"/>
	<path d="M 45 0 C 20.147 0 0 20.147 0 45 s 20.147 45 45 45 s 45 -20.147 45 -45 S 69.853 0 45 0 z M 63.652 63.689 c -7.041 0 -12.77 -5.729 -12.77 -12.77 c 0 -4.884 2.758 -9.131 6.796 -11.279 l -2.183 -5.066 l -9.067 16.83 c -0.179 0.331 -0.524 0.537 -0.9 0.537 h -6.46 c -0.524 6.564 -6.022 11.747 -12.718 11.747 c -7.042 0 -12.771 -5.729 -12.771 -12.77 c 0 -7.042 5.729 -12.771 12.771 -12.771 c 2.012 0 3.91 0.481 5.605 1.314 l 4.334 -7.308 l -1.637 -3.797 h -3.338 c -0.565 0 -1.023 -0.458 -1.023 -1.023 s 0.458 -1.023 1.023 -1.023 h 4.001 c 0.002 0 0.004 0 0.006 0 h 4.054 c 0.565 0 1.023 0.458 1.023 1.023 s -0.458 1.023 -1.023 1.023 h -2.496 l 1.228 2.848 h 15.936 l -1.494 -3.466 c 0 -0.001 0 -0.002 0 -0.002 c -0.031 -0.071 -0.035 -0.153 -0.049 -0.231 c -0.01 -0.056 -0.034 -0.112 -0.034 -0.168 c 0 -0.001 -0.001 -0.002 -0.001 -0.004 c 0 -0.036 0.017 -0.066 0.02 -0.101 c 0.01 -0.098 0.021 -0.195 0.058 -0.285 c 0.026 -0.063 0.071 -0.113 0.109 -0.169 c 0.035 -0.053 0.061 -0.112 0.107 -0.158 c 0.074 -0.076 0.166 -0.131 0.26 -0.18 c 0.024 -0.012 0.039 -0.034 0.064 -0.045 c 0.001 0 0.002 0 0.003 -0.001 c 0.059 -0.025 0.128 -0.027 0.192 -0.04 c 0.069 -0.015 0.137 -0.042 0.206 -0.042 c 0.001 0 0.003 -0.001 0.004 -0.001 h 7.373 c 1.914 0 3.47 1.557 3.47 3.47 s -1.556 3.47 -3.47 3.47 c -0.565 0 -1.023 -0.458 -1.023 -1.023 s 0.457 -1.023 1.023 -1.023 c 0.785 0 1.424 -0.639 1.424 -1.424 s -0.639 -1.424 -1.424 -1.424 h -5.819 l 4.515 10.477 c 1.287 -0.438 2.661 -0.686 4.095 -0.686 c 7.041 0 12.77 5.729 12.77 12.771 C 76.422 57.96 70.693 63.689 63.652 63.689 z" style="stroke: none; stroke-width: 1; stroke-dasharray: none; stroke-linecap: butt; stroke-linejoin: miter; stroke-miterlimit: 10; fill: rgb(0,0,0); fill-rule: nonzero; opacity: 1;" transform=" matrix(1 0 0 1 0 0) " stroke-linecap="round"/>
	<path d="M 63.652 40.193 c -1.146 0 -2.249 0.185 -3.285 0.519 l 4.224 9.801 c 0.224 0.518 -0.015 1.121 -0.534 1.343 c -0.132 0.057 -0.269 0.084 -0.403 0.084 c -0.397 0 -0.773 -0.231 -0.94 -0.618 l -4.224 -9.8 c -3.312 1.827 -5.562 5.353 -5.562 9.395 c 0 5.914 4.811 10.725 10.725 10.725 s 10.725 -4.811 10.725 -10.725 S 69.565 40.193 63.652 40.193 z" style="stroke: none; stroke-width: 1; stroke-dasharray: none; stroke-linecap: butt; stroke-linejoin: miter; stroke-miterlimit: 10; fill: rgb(0,0,0); fill-rule: nonzero; opacity: 1;" transform=" matrix(1 0 0 1 0 0) " stroke-linecap="round"/>
	<polygon points="45.61,48.61 53.88,33.25 38.99,33.25 " style="stroke: none; stroke-width: 1; stroke-dasharray: none; stroke-linecap: butt; stroke-linejoin: miter; stroke-miterlimit: 10; fill: rgb(0,0,0); fill-rule: nonzero; opacity: 1;" transform="  matrix(1 0 0 1 0 0) "/>
</g>
</svg>