<svg width="19" height="19" viewBox="0 0 19 19" fill="none" xmlns="http://www.w3.org/2000/svg">
<path fill-rule="evenodd" clip-rule="evenodd" d="M5.37073 1.28825C4.60306 0.873278 3.97332 0.532863 3.46821 0.314993C2.98199 0.105271 2.41611 -0.0836581 1.84775 0.0385984C1.09605 0.200293 0.467337 0.71236 0.156848 1.41578C-0.0779112 1.94763 -0.00742639 2.54004 0.0995448 3.05864C0.210672 3.5974 0.416584 4.28301 0.667593 5.11878L1.93491 9.33873L0.667586 13.5587C0.416582 14.3945 0.210671 15.0801 0.0995448 15.6188C-0.00742639 16.1374 -0.0779112 16.7298 0.156848 17.2617C0.467337 17.9651 1.09605 18.4772 1.84775 18.6389C2.41611 18.7611 2.98199 18.5722 3.46821 18.3625C3.97331 18.1446 4.60304 17.8042 5.37068 17.3892L16.2305 11.519C16.6239 11.3064 16.9723 11.1181 17.2362 10.9426C17.5008 10.7666 17.8178 10.5181 17.9954 10.131C18.2261 9.628 18.2261 9.04946 17.9954 8.54651C17.8178 8.15939 17.5008 7.9109 17.2362 7.73488C16.9723 7.55935 16.6239 7.37105 16.2305 7.15842L5.37073 1.28825ZM1.77782 2.55745C1.62392 2.04497 2.16705 1.6026 2.63778 1.85705L16.316 9.2507C16.3405 9.26395 16.3502 9.27671 16.3557 9.28637C16.3628 9.29876 16.3684 9.31682 16.3684 9.33867C16.3684 9.36053 16.3628 9.37859 16.3557 9.39098C16.3502 9.40064 16.3405 9.41339 16.316 9.42665L2.63778 16.8203C2.16705 17.0747 1.62392 16.6324 1.77782 16.1199L3.54403 10.2387H8.87143C9.36848 10.2387 9.77143 9.83579 9.77143 9.33873C9.77143 8.84168 9.36848 8.43873 8.87143 8.43873H3.54406L1.77782 2.55745Z" fill="#171719"/>
</svg>
