<svg width="277" height="36" viewBox="0 0 277 36" fill="none" xmlns="http://www.w3.org/2000/svg">
<g clip-path="url(#clip0_15605_67883)">
<path d="M45.2831 18.7503C49.8208 20.4153 56.384 24.1301 52.3992 28.9402C48.8155 33.2663 41.1141 34.6652 35.8362 35.1785C34.2577 35.3321 29.0318 35.628 27.0016 35.6487C24.972 35.628 19.7456 35.3321 18.1671 35.1785C12.8886 34.6652 5.18722 33.2663 1.60352 28.9402C-3.09577 23.2675 6.8756 19.1183 10.8925 18.0579L45.2831 18.7503Z" fill="white"/>
<path d="M49.0919 20.9265C51.3543 22.253 54.3255 24.6548 52.8516 27.5823C52.2185 28.8401 51.0949 29.8608 49.9478 30.6551C48.7889 31.4416 47.5396 32.0877 46.2265 32.5798C43.5402 33.6145 40.6839 34.2029 37.8338 34.5774C35.4797 34.8868 33.1077 35.0144 30.7367 35.1343C29.547 35.1947 28.3561 35.2538 27.1648 35.2725C26.0467 35.2902 24.922 35.2148 23.8056 35.161C21.4432 35.047 19.0743 34.932 16.7252 34.6475C13.876 34.3026 11.0225 33.7517 8.31756 32.781C5.81993 31.8847 3.16308 30.5321 1.59561 28.3176C0.987332 27.458 0.595738 26.416 0.804567 25.3721C1.0046 24.3714 1.62607 23.5234 2.3441 22.8192C4.03985 21.1562 6.31578 20.0608 8.5176 19.2245C9.00089 19.0409 9.48894 18.8707 9.98176 18.714C10.442 18.5678 10.2452 17.8443 9.78141 17.9916C7.4466 18.7337 5.11069 19.7439 3.12697 21.1909C1.33857 22.4965 -0.406644 24.4323 0.0838698 26.8085C0.347183 28.0835 1.20794 29.1736 2.13181 30.056C3.17999 31.0309 4.36996 31.8434 5.66166 32.4659C8.36404 33.8096 11.3426 34.5597 14.3103 35.0522C16.7602 35.433 19.2289 35.6821 21.7057 35.7983C24.1291 35.9377 26.5434 36.0636 28.97 35.9647C31.4317 35.8637 33.9059 35.759 36.3571 35.5004C39.2741 35.1925 42.1947 34.7024 44.9918 33.8063C47.7301 32.9293 50.5201 31.6319 52.4555 29.4491C53.4948 28.2774 54.228 26.8235 53.9352 25.2295C53.6683 23.7748 52.6037 22.5722 51.4881 21.6628C50.8529 21.1507 50.1789 20.6881 49.4722 20.279C49.0536 20.0335 48.6739 20.6809 49.0919 20.9259V20.9265Z" fill="#171719"/>
<path d="M27.5885 31.3015C25.3842 30.9628 22.3714 30.0583 20.1941 30.249C17.9042 30.4495 16.1492 32.0652 13.7811 32.1014C11.3631 32.1383 8.46178 30.8295 7.85272 28.4001C7.18101 25.7213 10.551 24.6164 12.5977 24.8263C15.1062 25.0842 16.7818 26.2138 18.7918 27.6217C19.2269 27.9424 19.8833 27.9494 20.3841 27.9794C22.6922 28.115 25.0716 28.2281 27.358 28.237C29.8283 28.2467 32.5172 28.2475 34.9797 28.2629C36.8497 28.2746 40.4469 27.7832 39.8118 30.7304C39.2779 33.2106 36.6244 32.9955 34.4934 32.6611C32.0741 32.2818 27.627 31.3074 27.5885 31.3015Z" fill="#E1E2E4"/>
<path d="M27.6886 30.9404C26.3252 30.7286 24.9848 30.3923 23.6266 30.1507C22.2987 29.9146 20.9134 29.7153 19.572 29.9585C18.2613 30.196 17.0912 30.8574 15.8491 31.3023C15.228 31.5404 14.5739 31.6825 13.9096 31.7237C13.3487 31.7439 12.7874 31.6925 12.2396 31.5707C11.1551 31.3338 10.0885 30.858 9.28396 30.0845C8.90739 29.7299 8.60464 29.3051 8.3929 28.8343C8.28141 28.5802 8.20387 28.3126 8.16225 28.0384C8.14932 27.9364 8.14272 27.8337 8.14247 27.7308C8.14254 27.6303 8.14936 27.53 8.16288 27.4304C8.23108 27.0347 8.41983 26.6693 8.70364 26.3837C9.01205 26.0756 9.37691 25.829 9.77856 25.6572C10.6035 25.2902 11.5061 25.1286 12.4081 25.1864C13.7002 25.266 14.9591 25.7098 16.0871 26.3239C16.6792 26.6462 17.2455 27.0132 17.8022 27.3922C18.0857 27.5852 18.3611 27.7929 18.6489 27.9794C18.9493 28.157 19.286 28.2652 19.6341 28.2962C20.3929 28.3953 21.1719 28.4016 21.9357 28.4414C22.7612 28.4844 23.5868 28.5209 24.4126 28.5506C26.0541 28.6087 27.6953 28.614 29.3376 28.6182C30.965 28.6225 32.5924 28.6277 34.2198 28.6338C35.1521 28.6385 36.0882 28.5912 37.0197 28.6207C37.4224 28.623 37.8238 28.6675 38.2172 28.7535C38.3098 28.7749 38.402 28.7992 38.4928 28.8278C38.5367 28.8415 38.5805 28.8562 38.6239 28.8721C38.6452 28.8797 38.6664 28.8877 38.6878 28.8961C38.7539 28.9213 38.6674 28.886 38.7061 28.9038C38.7808 28.9371 38.8537 28.9743 38.9244 29.0152C38.9611 29.0367 38.9965 29.0602 39.0321 29.0833C39.1193 29.1401 39.0285 29.0694 39.1048 29.1387C39.1624 29.1909 39.216 29.2448 39.2681 29.3024C39.3253 29.3656 39.2592 29.2757 39.3026 29.3492C39.3265 29.3898 39.3532 29.4283 39.3755 29.4698C39.3849 29.4873 39.4344 29.5983 39.4053 29.5262C39.422 29.5672 39.4367 29.6093 39.4491 29.6518C39.4615 29.6942 39.4735 29.7407 39.4831 29.7858C39.4879 29.8091 39.4922 29.8327 39.4961 29.8561C39.5077 29.9243 39.4961 29.8417 39.4994 29.8848C39.5402 30.3618 39.4485 30.8409 39.2343 31.2697C38.8183 32.0896 37.9741 32.4041 37.0864 32.4695C36.0658 32.5447 35.064 32.3833 34.0692 32.214C32.0737 31.8744 30.0912 31.4551 28.1127 31.0308C27.9714 31.0005 27.8301 30.9654 27.6887 30.9399C27.5925 30.9162 27.4907 30.9302 27.4045 30.9788C27.3183 31.0275 27.2541 31.1072 27.2252 31.2015C27.1996 31.2972 27.2127 31.3992 27.262 31.4854C27.3112 31.5715 27.3925 31.635 27.4884 31.6622C28.0456 31.7624 28.5985 31.9 29.1528 32.0161C30.2815 32.2527 31.4117 32.4832 32.5443 32.6972C33.6242 32.9221 34.7153 33.0905 35.813 33.2016C36.8358 33.2855 37.9776 33.2614 38.8822 32.7178C39.8153 32.156 40.3308 31.0133 40.2573 29.9424C40.2376 29.4976 40.0659 29.0729 39.7705 28.7382C39.4823 28.4448 39.1225 28.2306 38.7262 28.1163C37.8835 27.8416 36.952 27.8536 36.0755 27.8705C34.8037 27.895 33.5319 27.8811 32.2588 27.8772C28.853 27.8666 25.4522 27.8733 22.0499 27.6979C21.2794 27.6582 20.489 27.659 19.7237 27.5587C19.3949 27.5143 19.0833 27.3857 18.8196 27.1855C18.5213 26.9775 18.223 26.7706 17.9212 26.5686C16.774 25.802 15.56 25.119 14.2199 24.7496C13.0995 24.4164 11.9154 24.3532 10.7656 24.5651C9.79991 24.7588 8.78937 25.1737 8.11562 25.9121C7.36995 26.7294 7.22848 27.8179 7.59291 28.8439C7.99958 29.9892 8.87918 30.8864 9.92521 31.4861C10.9954 32.0903 12.1966 32.4286 13.4266 32.4721C14.8531 32.5258 16.142 32.0135 17.4286 31.4657C18.0418 31.1887 18.6756 30.9592 19.3243 30.779C19.9619 30.6256 20.6191 30.5684 21.2739 30.6091C22.7133 30.6759 24.1316 31.0019 25.5365 31.2937C26.1845 31.4282 26.833 31.5618 27.4871 31.6633C27.5834 31.6866 27.685 31.6725 27.7711 31.6239C27.8573 31.5753 27.9215 31.4958 27.9506 31.4017C27.9767 31.306 27.9638 31.204 27.9148 31.1177C27.8657 31.0313 27.7845 30.9677 27.6886 30.9404Z" fill="#171719"/>
<path d="M9.95844 29.536C10.2995 29.9461 10.7139 30.29 11.1806 30.5504C11.6727 30.8056 12.2142 30.9526 12.7684 30.9813C12.8683 30.9813 12.9642 30.9419 13.0348 30.8716C13.1055 30.8014 13.1452 30.7061 13.1452 30.6068C13.1452 30.5074 13.1055 30.4122 13.0348 30.3419C12.9642 30.2717 12.8683 30.2322 12.7684 30.2322C12.3358 30.2044 11.9138 30.0867 11.5298 29.8867C11.4312 29.8326 11.3353 29.7735 11.2427 29.7097C11.2231 29.6962 11.2035 29.6824 11.1839 29.6684C11.1861 29.6699 11.1065 29.6109 11.1353 29.6329C11.1667 29.657 11.094 29.6 11.0882 29.5949C11.0644 29.5755 11.0409 29.556 11.0178 29.5362C10.8291 29.373 10.6532 29.1956 10.4918 29.0056C10.4207 28.9361 10.325 28.8972 10.2254 28.8972C10.1257 28.8972 10.03 28.9361 9.95891 29.0056C9.89003 29.0767 9.85156 29.1717 9.85156 29.2704C9.85156 29.3692 9.89003 29.4641 9.95891 29.5352L9.95844 29.536Z" fill="#171719"/>
<path d="M13.999 30.9549C14.2025 30.9617 14.4058 30.9381 14.6021 30.8848C14.7729 30.845 14.9403 30.7921 15.1029 30.7267C15.196 30.6977 15.2758 30.6369 15.328 30.555C15.3784 30.4693 15.3925 30.3671 15.3672 30.271C15.3418 30.1749 15.2791 30.0928 15.1928 30.0427C15.1497 30.0168 15.1016 30 15.0517 29.9935C15.0017 29.987 14.9509 29.9909 14.9025 30.0049C14.6638 30.1028 14.4138 30.171 14.1583 30.2078L14.2584 30.1944C14.1728 30.2067 14.0862 30.2103 13.9998 30.2053C13.9252 30.2051 13.8521 30.227 13.79 30.2681C13.7278 30.3093 13.6794 30.3678 13.6508 30.4364C13.6222 30.5049 13.6147 30.5804 13.6294 30.6532C13.644 30.7259 13.68 30.7928 13.7329 30.8452C13.806 30.912 13.9006 30.9507 13.9998 30.9544L13.999 30.9549Z" fill="#171719"/>
<path d="M34.7612 31.7609C35.3474 31.8681 35.9417 31.9248 36.5377 31.9304C37.0373 31.9253 37.576 31.8667 38.0113 31.6027C38.4247 31.352 38.0465 30.7039 37.6308 30.9558C37.5911 30.98 37.5503 31.0009 37.5093 31.0226C37.4693 31.0407 37.4662 31.0426 37.5 31.0282C37.477 31.0373 37.4538 31.0458 37.4303 31.054C37.3306 31.0878 37.2286 31.1144 37.1249 31.1335C36.9152 31.1683 36.7027 31.1843 36.4901 31.1815C35.9777 31.1756 35.4665 31.128 34.9619 31.039C34.8656 31.0155 34.764 31.0295 34.6778 31.0782C34.5916 31.1268 34.5273 31.2063 34.4982 31.3005C34.4725 31.3963 34.4857 31.4983 34.5349 31.5845C34.5842 31.6707 34.6656 31.7342 34.7616 31.7612L34.7612 31.7609Z" fill="#171719"/>
<path d="M13.9392 23.8474C10.7185 19.3033 9.59676 13.5209 9.47193 8.05527C9.45765 7.43102 9.46031 6.79334 9.65548 6.19937C9.99699 5.16 11.2851 4.17212 12.2429 3.63433C14.6467 2.28455 18.969 0.959109 22.7582 0.608749C24.2319 0.472507 25.6389 0.392603 27.015 0.372314C28.3914 0.392603 29.7983 0.472507 31.2718 0.608749C33.9973 0.835728 36.6746 1.4587 39.2182 2.45778C40.9557 3.15069 43.22 4.09113 44.1265 5.83184C44.638 6.81504 44.6621 7.97614 44.5454 9.07638C43.8771 15.3796 42.7203 22.1664 37.6291 26.5574L13.9392 23.8474Z" fill="white"/>
<path d="M15.1393 8.49584C14.8337 8.36582 14.5364 8.21728 14.249 8.05107C15.849 5.78036 21.8944 5.3838 24.3458 5.26863C27.0905 5.13957 30.3181 5.16376 33.5282 5.62008C34.8113 5.80236 39.5549 6.98719 39.8413 8.61648C37.2947 9.60596 34.6188 10.2286 31.895 10.4657C30.4773 10.5968 29.0584 10.6631 27.6381 10.6646C26.2193 10.661 24.8004 10.5947 23.3813 10.4657C20.6573 10.2289 17.9814 9.60643 15.4346 8.6171C15.3464 8.58339 15.2462 8.54188 15.1393 8.49584Z" fill="#B35C49"/>
<path d="M51.262 14.7635C50.8292 17.4762 48.5013 19.731 46.2909 21.0488C44.8778 21.8915 40.1191 24.3848 39.7216 24.5302C39.7216 24.5302 39.6347 24.5614 39.4912 24.6154C40.7844 22.9994 41.7811 21.1087 42.5357 19.098L42.6742 19.0406C44.2659 18.3851 46.2168 17.2547 46.9106 15.5471C47.5567 13.9573 45.7644 12.0791 44.0391 13.4064C44.2433 12.2188 44.3846 11.0367 44.4741 9.88984L44.5987 9.85723C46.1077 9.46255 47.8546 9.46379 49.1913 10.1216C50.3434 10.6887 51.1907 11.7439 51.318 13.4538C51.3503 13.8911 51.3315 14.3306 51.262 14.7635Z" fill="white"/>
<path d="M13.2568 5.93641C13.1066 6.04896 12.9857 6.19565 12.9042 6.36418C12.8228 6.53271 12.7831 6.71819 12.7886 6.90509C12.8407 7.26657 13.0252 7.59622 13.3067 7.83085C13.8602 8.34461 14.5776 8.67639 15.273 8.9545C17.5259 9.83769 19.883 10.4315 22.2872 10.7214C24.8064 11.0293 27.3479 11.1168 29.8825 10.9828C32.3594 10.8619 34.8253 10.5476 37.2179 9.88494C37.8773 9.70214 38.5297 9.49546 39.1751 9.2649C39.6726 9.10687 40.1564 8.90852 40.6213 8.67187C41.0146 8.47675 41.3276 8.15226 41.5073 7.7536C41.702 7.26262 41.5353 6.73623 41.2754 6.30378C41.027 5.89037 40.3751 6.26664 40.6248 6.68192C40.7298 6.84222 40.802 7.02152 40.8372 7.20956C40.8564 7.33423 40.8313 7.46164 40.7662 7.56991C40.6087 7.79929 40.3875 7.97822 40.1295 8.08492C39.7547 8.262 39.369 8.41535 38.9747 8.54405C38.4446 8.73258 37.9094 8.90555 37.3691 9.06296C35.1801 9.68165 32.9293 10.0594 30.6573 10.1894C26.0342 10.4914 21.2751 10.21 16.859 8.73523C15.9483 8.43138 15.1396 8.16092 14.3352 7.66495C14.1829 7.57421 14.0383 7.47128 13.9028 7.3572C13.7806 7.26014 13.6765 7.14263 13.595 7.00996C13.5805 6.98523 13.5673 6.95975 13.5554 6.93365C13.5878 7.00762 13.5443 6.88371 13.5397 6.86826C13.5145 6.76681 13.5463 6.94519 13.5379 6.84204C13.5374 6.8209 13.5381 6.79975 13.5399 6.77868C13.5336 6.82029 13.5333 6.82695 13.539 6.79865C13.5462 6.77181 13.5525 6.74512 13.5624 6.71875C13.5369 6.78679 13.5975 6.66194 13.6073 6.64774C13.6616 6.58103 13.7228 6.52014 13.7899 6.46608C13.8597 6.39542 13.8989 6.30032 13.8989 6.20124C13.8989 6.10217 13.8597 6.00707 13.7899 5.93641C13.7182 5.86802 13.6227 5.82983 13.5234 5.82983C13.4241 5.82983 13.3284 5.86802 13.2568 5.93641Z" fill="#171719"/>
<path d="M14.2644 23.659C12.7993 21.5405 11.7101 19.1882 11.044 16.7042C10.3718 14.2168 9.98283 11.6621 9.88428 9.08838C9.83525 8.42026 9.82875 7.74972 9.86481 7.08079C9.89824 6.5082 10.1138 5.96096 10.4803 5.51798C11.1899 4.66619 12.1555 4.0691 13.1422 3.58655C15.3804 2.49287 17.8468 1.79542 20.2906 1.33535C21.6611 1.08977 23.0454 0.927941 24.4358 0.850779C25.8789 0.752475 27.3265 0.736843 28.7714 0.803961C31.6771 0.94785 34.5621 1.30258 37.3425 2.18464C38.5114 2.55107 39.653 2.99839 40.759 3.52335C41.7408 3.99403 42.7278 4.56896 43.4171 5.42731C44.2169 6.42408 44.2964 7.7194 44.181 8.9409C44.073 10.0867 43.928 11.2319 43.7585 12.3702C43.4141 14.6813 42.9297 16.985 42.1189 19.1825C41.3261 21.3315 40.1897 23.3715 38.6291 25.066C38.2301 25.4983 37.8068 25.9079 37.3614 26.2928C36.9951 26.61 37.53 27.1381 37.8944 26.8225C39.7215 25.2119 41.1807 23.2314 42.1742 21.014C43.1778 18.824 43.8029 16.4882 44.2311 14.1247C44.4487 12.9242 44.6173 11.7154 44.7623 10.504C44.9163 9.21806 45.1316 7.89153 44.8175 6.61229C44.224 4.19426 41.7177 3.06296 39.6076 2.21133C36.8677 1.12544 33.9802 0.451646 31.0403 0.212172C29.5463 0.0593143 28.0447 -0.009203 26.5429 0.00695021C25.0502 0.0434688 23.5496 0.128835 22.0669 0.307994C19.3821 0.628448 16.7508 1.29508 14.2392 2.29108C13.199 2.70683 12.156 3.1719 11.2434 3.82704C10.7228 4.18499 10.2556 4.614 9.85539 5.10145C9.44519 5.61981 9.19302 6.24415 9.12873 6.90054C9.07302 7.58516 9.0717 8.27308 9.1248 8.95791C9.1539 9.6295 9.19907 10.3001 9.26031 10.9697C9.37998 12.2984 9.57351 13.6194 9.84001 14.9268C10.3756 17.5235 11.2454 20.0717 12.5623 22.3836C12.8856 22.9513 13.2362 23.5022 13.6143 24.0363C13.6665 24.1201 13.7491 24.1808 13.8451 24.2058C13.941 24.2308 14.0429 24.2182 14.1298 24.1707C14.2155 24.12 14.2776 24.0378 14.3029 23.942C14.3282 23.8461 14.3146 23.7442 14.265 23.6582L14.2644 23.659Z" fill="#171719"/>
<path d="M14.5936 8.2133C14.6036 8.19972 14.6137 8.18599 14.6239 8.17241C14.6594 8.12559 14.5904 8.2133 14.6284 8.16773C14.6506 8.1412 14.6727 8.11467 14.6956 8.08876C14.7501 8.02706 14.8071 7.96776 14.8666 7.91085C14.9717 7.80824 15.0844 7.71366 15.2037 7.62791C15.5035 7.41651 15.8228 7.23402 16.1574 7.08294C16.9159 6.75208 17.7067 6.50016 18.5174 6.33118C20.1454 5.98555 21.7988 5.77156 23.4616 5.69133C25.7276 5.5442 28.0006 5.53664 30.2676 5.6687C31.4248 5.72078 32.5779 5.84142 33.7206 6.02998C34.3812 6.15393 35.0346 6.3134 35.6778 6.50769C36.4495 6.72541 37.2013 7.00791 37.9249 7.35215C38.2527 7.51021 38.5662 7.69593 38.8621 7.90726C38.8809 7.91926 38.8986 7.9329 38.915 7.94799C38.9421 7.97015 38.9693 7.99231 38.9958 8.01525C39.0552 8.06629 39.1127 8.11935 39.1673 8.17522C39.215 8.22391 39.2604 8.27473 39.3033 8.32769C39.3301 8.36093 39.2926 8.31474 39.2903 8.31208C39.3017 8.32769 39.314 8.3433 39.3243 8.36C39.3424 8.3884 39.3612 8.41587 39.3782 8.44489C39.3951 8.47392 39.4086 8.50217 39.4243 8.53057C39.4584 8.593 39.4074 8.47439 39.4292 8.5404C39.4494 8.59807 39.4657 8.65705 39.4779 8.71691C39.5053 8.8122 39.5692 8.893 39.6559 8.94192C39.7426 8.99083 39.8452 9.00396 39.9415 8.97847C40.0368 8.95025 40.1173 8.88653 40.1664 8.80064C40.2154 8.71475 40.2291 8.61334 40.2047 8.51762C40.0805 7.86419 39.4746 7.39085 38.942 7.0575C38.2226 6.63091 37.4564 6.28772 36.6584 6.03467C35.919 5.78188 35.1657 5.57148 34.4021 5.40449C33.4529 5.21451 32.4925 5.0842 31.5268 5.01433C29.0001 4.79984 26.4611 4.76656 23.9295 4.91476C22.2336 4.98757 20.5451 5.18001 18.8766 5.49063C17.994 5.65265 17.1284 5.89553 16.2909 6.21617C15.5686 6.50395 14.8508 6.86585 14.2948 7.41785C14.1665 7.54745 14.0486 7.68677 13.9421 7.83453C13.8924 7.92046 13.8787 8.02238 13.904 8.11826C13.9293 8.21414 13.9916 8.29627 14.0773 8.34689C14.1641 8.39482 14.2662 8.4076 14.3623 8.38257C14.4583 8.35754 14.541 8.29662 14.5929 8.21252L14.5936 8.2133Z" fill="#171719"/>
<path d="M44.6992 10.2187C46.1508 9.84326 47.85 9.80689 49.1725 10.5346C49.8294 10.886 50.3457 11.45 50.6356 12.1332C50.9795 13.0166 51.056 13.9808 50.8554 14.9069C50.439 16.9597 48.9568 18.6733 47.3173 19.909C46.0701 20.8489 44.6431 21.5534 43.2682 22.2864C42.0816 22.9191 40.8973 23.5736 39.6783 24.1436C39.6515 24.156 39.6243 24.1678 39.5978 24.1806C39.5172 24.2191 39.6906 24.1445 39.6221 24.1701C39.5273 24.1988 39.4471 24.2626 39.3982 24.3483C39.3492 24.434 39.3352 24.5351 39.359 24.6308C39.3862 24.7262 39.45 24.8071 39.5367 24.8561C39.6235 24.9051 39.7261 24.9182 39.8225 24.8925C40.2423 24.7169 40.6518 24.5177 41.0488 24.2957C41.7723 23.9251 42.4929 23.5488 43.2107 23.1668C43.957 22.771 44.7023 22.3719 45.4413 21.9637C46.1235 21.601 46.7841 21.1993 47.4196 20.7608C49.2253 19.4715 50.8757 17.7052 51.4815 15.5288C52.0079 13.6371 51.6663 11.4068 50.0079 10.1796C48.6301 9.16001 46.7366 9.0631 45.104 9.3629C44.9011 9.4002 44.6998 9.4453 44.5001 9.49695C44.0311 9.61837 44.23 10.3411 44.7005 10.2194L44.6992 10.2187Z" fill="#171719"/>
<path d="M44.2294 13.7301C44.7022 13.3751 45.2829 13.1975 45.8114 13.4629C46.0341 13.5791 46.2265 13.7454 46.373 13.9487C46.5195 14.1519 46.616 14.3864 46.655 14.6334C46.7456 15.2399 46.4082 15.8214 46.0477 16.2916C45.6286 16.8161 45.1259 17.2689 44.5596 17.632C43.9337 18.0447 43.2686 18.3954 42.5739 18.6792C42.4793 18.7083 42.3995 18.7722 42.3506 18.8578C42.3017 18.9433 42.2874 19.0442 42.3107 19.1399C42.3378 19.2353 42.4016 19.3163 42.4884 19.3653C42.5752 19.4143 42.6779 19.4273 42.7742 19.4014C44.2439 18.7928 45.7049 17.9752 46.6817 16.692C47.14 16.0898 47.5012 15.3591 47.4024 14.5863C47.359 14.2358 47.2368 13.8996 47.0446 13.6026C46.8525 13.3056 46.5954 13.0555 46.2926 12.8708C45.5075 12.4047 44.5598 12.549 43.849 13.0826C43.7651 13.1349 43.7043 13.217 43.6792 13.3122C43.6541 13.4075 43.6665 13.5086 43.7138 13.5951C43.7647 13.6804 43.8474 13.7423 43.9439 13.7674C44.0404 13.7926 44.143 13.779 44.2294 13.7295V13.7301Z" fill="#171719"/>
</g>
<path d="M68.64 26C68.464 26 68.328 25.952 68.232 25.856C68.136 25.744 68.088 25.608 68.088 25.448V9.776C68.088 9.6 68.136 9.464 68.232 9.368C68.328 9.256 68.464 9.2 68.64 9.2H69.744C69.936 9.2 70.08 9.248 70.176 9.344C70.272 9.424 70.328 9.488 70.344 9.536L78.312 21.776V9.776C78.312 9.6 78.36 9.464 78.456 9.368C78.552 9.256 78.688 9.2 78.864 9.2H80.016C80.192 9.2 80.328 9.256 80.424 9.368C80.536 9.464 80.592 9.6 80.592 9.776V25.424C80.592 25.584 80.536 25.72 80.424 25.832C80.328 25.944 80.2 26 80.04 26H78.888C78.712 26 78.576 25.952 78.48 25.856C78.4 25.76 78.344 25.696 78.312 25.664L70.368 13.544V25.448C70.368 25.608 70.312 25.744 70.2 25.856C70.104 25.952 69.968 26 69.792 26H68.64ZM89.0001 26.24C87.7841 26.24 86.7681 26.008 85.9521 25.544C85.1361 25.08 84.5121 24.44 84.0801 23.624C83.6481 22.792 83.4081 21.848 83.3601 20.792C83.3441 20.52 83.3361 20.176 83.3361 19.76C83.3361 19.328 83.3441 18.984 83.3601 18.728C83.4081 17.656 83.6481 16.712 84.0801 15.896C84.5281 15.08 85.1601 14.44 85.9761 13.976C86.7921 13.512 87.8001 13.28 89.0001 13.28C90.2001 13.28 91.2081 13.512 92.0241 13.976C92.8401 14.44 93.4641 15.08 93.8961 15.896C94.3441 16.712 94.5921 17.656 94.6401 18.728C94.6561 18.984 94.6641 19.328 94.6641 19.76C94.6641 20.176 94.6561 20.52 94.6401 20.792C94.5921 21.848 94.3521 22.792 93.9201 23.624C93.4881 24.44 92.8641 25.08 92.0481 25.544C91.2321 26.008 90.2161 26.24 89.0001 26.24ZM89.0001 24.392C89.9921 24.392 90.7841 24.08 91.3761 23.456C91.9681 22.816 92.2881 21.888 92.3361 20.672C92.3521 20.432 92.3601 20.128 92.3601 19.76C92.3601 19.392 92.3521 19.088 92.3361 18.848C92.2881 17.632 91.9681 16.712 91.3761 16.088C90.7841 15.448 89.9921 15.128 89.0001 15.128C88.0081 15.128 87.2081 15.448 86.6001 16.088C86.0081 16.712 85.6961 17.632 85.6641 18.848C85.6481 19.088 85.6401 19.392 85.6401 19.76C85.6401 20.128 85.6481 20.432 85.6641 20.672C85.6961 21.888 86.0081 22.816 86.6001 23.456C87.2081 24.08 88.0081 24.392 89.0001 24.392ZM97.6693 26C97.5093 26 97.3733 25.952 97.2613 25.856C97.1653 25.744 97.1173 25.608 97.1173 25.448V14.072C97.1173 13.912 97.1653 13.784 97.2613 13.688C97.3733 13.576 97.5093 13.52 97.6693 13.52H98.7493C98.9093 13.52 99.0373 13.576 99.1333 13.688C99.2453 13.784 99.3013 13.912 99.3013 14.072V14.912C99.6693 14.416 100.133 14.024 100.693 13.736C101.253 13.432 101.925 13.28 102.709 13.28C104.517 13.264 105.797 14 106.549 15.488C106.917 14.816 107.453 14.28 108.157 13.88C108.861 13.48 109.661 13.28 110.557 13.28C111.389 13.28 112.141 13.472 112.813 13.856C113.501 14.24 114.037 14.824 114.421 15.608C114.821 16.376 115.021 17.344 115.021 18.512V25.448C115.021 25.608 114.965 25.744 114.853 25.856C114.757 25.952 114.629 26 114.469 26H113.341C113.181 26 113.045 25.952 112.933 25.856C112.837 25.744 112.789 25.608 112.789 25.448V18.728C112.789 17.832 112.661 17.128 112.405 16.616C112.149 16.104 111.805 15.744 111.373 15.536C110.941 15.328 110.469 15.224 109.957 15.224C109.541 15.224 109.117 15.328 108.685 15.536C108.253 15.744 107.893 16.104 107.605 16.616C107.333 17.128 107.197 17.832 107.197 18.728V25.448C107.197 25.608 107.141 25.744 107.029 25.856C106.933 25.952 106.805 26 106.645 26H105.517C105.357 26 105.221 25.952 105.109 25.856C105.013 25.744 104.965 25.608 104.965 25.448V18.728C104.965 17.832 104.829 17.128 104.557 16.616C104.285 16.104 103.933 15.744 103.501 15.536C103.069 15.328 102.613 15.224 102.133 15.224C101.717 15.224 101.293 15.328 100.861 15.536C100.429 15.744 100.069 16.104 99.7813 16.616C99.5093 17.128 99.3733 17.824 99.3733 18.704V25.448C99.3733 25.608 99.3173 25.744 99.2053 25.856C99.1093 25.952 98.9813 26 98.8213 26H97.6693ZM121.373 26.24C120.573 26.24 119.845 26.08 119.189 25.76C118.533 25.44 118.005 25.008 117.605 24.464C117.205 23.92 117.005 23.304 117.005 22.616C117.005 21.512 117.453 20.632 118.349 19.976C119.245 19.32 120.413 18.888 121.853 18.68L125.429 18.176V17.48C125.429 16.712 125.205 16.112 124.757 15.68C124.325 15.248 123.613 15.032 122.621 15.032C121.901 15.032 121.317 15.176 120.869 15.464C120.437 15.752 120.133 16.12 119.957 16.568C119.861 16.808 119.693 16.928 119.453 16.928H118.373C118.197 16.928 118.061 16.88 117.965 16.784C117.885 16.672 117.845 16.544 117.845 16.4C117.845 16.16 117.933 15.864 118.109 15.512C118.301 15.16 118.589 14.816 118.973 14.48C119.357 14.144 119.845 13.864 120.437 13.64C121.045 13.4 121.781 13.28 122.645 13.28C123.605 13.28 124.413 13.408 125.069 13.664C125.725 13.904 126.237 14.232 126.605 14.648C126.989 15.064 127.261 15.536 127.421 16.064C127.597 16.592 127.685 17.128 127.685 17.672V25.448C127.685 25.608 127.629 25.744 127.517 25.856C127.421 25.952 127.293 26 127.133 26H126.029C125.853 26 125.717 25.952 125.621 25.856C125.525 25.744 125.477 25.608 125.477 25.448V24.416C125.269 24.704 124.989 24.992 124.637 25.28C124.285 25.552 123.845 25.784 123.317 25.976C122.789 26.152 122.141 26.24 121.373 26.24ZM121.877 24.44C122.533 24.44 123.133 24.304 123.677 24.032C124.221 23.744 124.645 23.304 124.949 22.712C125.269 22.12 125.429 21.376 125.429 20.48V19.808L122.645 20.216C121.509 20.376 120.653 20.648 120.077 21.032C119.501 21.4 119.213 21.872 119.213 22.448C119.213 22.896 119.341 23.272 119.597 23.576C119.869 23.864 120.205 24.08 120.605 24.224C121.021 24.368 121.445 24.44 121.877 24.44ZM135.144 26.24C134.264 26.24 133.504 26.088 132.864 25.784C132.224 25.464 131.696 25.04 131.28 24.512C130.88 23.968 130.576 23.352 130.368 22.664C130.176 21.976 130.064 21.248 130.032 20.48C130.016 20.224 130.008 19.984 130.008 19.76C130.008 19.536 130.016 19.296 130.032 19.04C130.064 18.288 130.176 17.568 130.368 16.88C130.576 16.192 130.88 15.576 131.28 15.032C131.696 14.488 132.224 14.064 132.864 13.76C133.504 13.44 134.264 13.28 135.144 13.28C136.088 13.28 136.872 13.448 137.496 13.784C138.12 14.12 138.632 14.536 139.032 15.032V9.512C139.032 9.352 139.08 9.224 139.176 9.128C139.288 9.016 139.424 8.96 139.584 8.96H140.736C140.896 8.96 141.024 9.016 141.12 9.128C141.232 9.224 141.288 9.352 141.288 9.512V25.448C141.288 25.608 141.232 25.744 141.12 25.856C141.024 25.952 140.896 26 140.736 26H139.656C139.48 26 139.344 25.952 139.248 25.856C139.152 25.744 139.104 25.608 139.104 25.448V24.44C138.704 24.952 138.184 25.384 137.544 25.736C136.904 26.072 136.104 26.24 135.144 26.24ZM135.648 24.296C136.448 24.296 137.088 24.112 137.568 23.744C138.048 23.376 138.408 22.912 138.648 22.352C138.888 21.776 139.016 21.192 139.032 20.6C139.048 20.344 139.056 20.04 139.056 19.688C139.056 19.32 139.048 19.008 139.032 18.752C139.016 18.192 138.88 17.64 138.624 17.096C138.384 16.552 138.016 16.104 137.52 15.752C137.04 15.4 136.416 15.224 135.648 15.224C134.832 15.224 134.184 15.408 133.704 15.776C133.224 16.128 132.88 16.6 132.672 17.192C132.464 17.768 132.344 18.392 132.312 19.064C132.296 19.528 132.296 19.992 132.312 20.456C132.344 21.128 132.464 21.76 132.672 22.352C132.88 22.928 133.224 23.4 133.704 23.768C134.184 24.12 134.832 24.296 135.648 24.296ZM150.017 26.24C148.625 26.24 147.457 26.032 146.513 25.616C145.569 25.184 144.841 24.632 144.329 23.96C143.833 23.272 143.569 22.544 143.537 21.776C143.537 21.648 143.585 21.536 143.681 21.44C143.793 21.328 143.921 21.272 144.065 21.272H145.289C145.481 21.272 145.625 21.32 145.721 21.416C145.817 21.512 145.881 21.624 145.913 21.752C145.993 22.136 146.185 22.52 146.489 22.904C146.809 23.272 147.249 23.584 147.809 23.84C148.385 24.08 149.121 24.2 150.017 24.2C151.393 24.2 152.401 23.96 153.041 23.48C153.697 22.984 154.025 22.328 154.025 21.512C154.025 20.952 153.849 20.504 153.497 20.168C153.161 19.816 152.641 19.504 151.937 19.232C151.233 18.96 150.321 18.664 149.201 18.344C148.033 18.008 147.065 17.64 146.297 17.24C145.529 16.84 144.953 16.344 144.569 15.752C144.201 15.16 144.017 14.408 144.017 13.496C144.017 12.632 144.249 11.864 144.713 11.192C145.177 10.504 145.841 9.96 146.705 9.56C147.585 9.16 148.649 8.96 149.897 8.96C150.889 8.96 151.753 9.096 152.489 9.368C153.241 9.624 153.865 9.976 154.361 10.424C154.857 10.856 155.233 11.328 155.489 11.84C155.745 12.336 155.881 12.824 155.897 13.304C155.897 13.416 155.857 13.528 155.777 13.64C155.697 13.736 155.569 13.784 155.393 13.784H154.121C154.009 13.784 153.889 13.752 153.761 13.688C153.649 13.624 153.561 13.504 153.497 13.328C153.401 12.672 153.033 12.12 152.393 11.672C151.753 11.224 150.921 11 149.897 11C148.857 11 148.009 11.2 147.353 11.6C146.713 12 146.393 12.624 146.393 13.472C146.393 14.016 146.545 14.472 146.849 14.84C147.153 15.192 147.633 15.504 148.289 15.776C148.945 16.048 149.801 16.336 150.857 16.64C152.137 16.992 153.185 17.368 154.001 17.768C154.817 18.152 155.417 18.64 155.801 19.232C156.201 19.808 156.401 20.552 156.401 21.464C156.401 22.472 156.137 23.336 155.609 24.056C155.081 24.76 154.337 25.304 153.377 25.688C152.433 26.056 151.313 26.24 150.017 26.24ZM159.259 30.56C159.099 30.56 158.963 30.504 158.851 30.392C158.755 30.296 158.707 30.168 158.707 30.008V14.072C158.707 13.912 158.755 13.784 158.851 13.688C158.963 13.576 159.099 13.52 159.259 13.52H160.363C160.523 13.52 160.651 13.576 160.747 13.688C160.859 13.784 160.915 13.912 160.915 14.072V15.128C161.299 14.6 161.811 14.16 162.451 13.808C163.091 13.456 163.891 13.28 164.851 13.28C165.747 13.28 166.507 13.432 167.131 13.736C167.771 14.04 168.291 14.456 168.691 14.984C169.107 15.512 169.419 16.112 169.627 16.784C169.835 17.456 169.947 18.176 169.963 18.944C169.979 19.2 169.987 19.472 169.987 19.76C169.987 20.048 169.979 20.32 169.963 20.576C169.947 21.328 169.835 22.048 169.627 22.736C169.419 23.408 169.107 24.008 168.691 24.536C168.291 25.048 167.771 25.464 167.131 25.784C166.507 26.088 165.747 26.24 164.851 26.24C163.923 26.24 163.139 26.072 162.499 25.736C161.875 25.384 161.363 24.952 160.963 24.44V30.008C160.963 30.168 160.915 30.296 160.819 30.392C160.723 30.504 160.587 30.56 160.411 30.56H159.259ZM164.347 24.296C165.179 24.296 165.827 24.12 166.291 23.768C166.771 23.4 167.115 22.928 167.323 22.352C167.531 21.76 167.651 21.128 167.683 20.456C167.699 19.992 167.699 19.528 167.683 19.064C167.651 18.392 167.531 17.768 167.323 17.192C167.115 16.6 166.771 16.128 166.291 15.776C165.827 15.408 165.179 15.224 164.347 15.224C163.563 15.224 162.923 15.408 162.427 15.776C161.947 16.144 161.587 16.616 161.347 17.192C161.123 17.752 160.995 18.328 160.963 18.92C160.947 19.176 160.939 19.48 160.939 19.832C160.939 20.184 160.947 20.496 160.963 20.768C160.979 21.328 161.107 21.88 161.347 22.424C161.603 22.968 161.979 23.416 162.475 23.768C162.971 24.12 163.595 24.296 164.347 24.296ZM177.54 26.24C176.324 26.24 175.308 26.008 174.492 25.544C173.676 25.08 173.052 24.44 172.62 23.624C172.188 22.792 171.948 21.848 171.9 20.792C171.884 20.52 171.876 20.176 171.876 19.76C171.876 19.328 171.884 18.984 171.9 18.728C171.948 17.656 172.188 16.712 172.62 15.896C173.068 15.08 173.7 14.44 174.516 13.976C175.332 13.512 176.34 13.28 177.54 13.28C178.74 13.28 179.748 13.512 180.564 13.976C181.38 14.44 182.004 15.08 182.436 15.896C182.884 16.712 183.132 17.656 183.18 18.728C183.196 18.984 183.204 19.328 183.204 19.76C183.204 20.176 183.196 20.52 183.18 20.792C183.132 21.848 182.892 22.792 182.46 23.624C182.028 24.44 181.404 25.08 180.588 25.544C179.772 26.008 178.756 26.24 177.54 26.24ZM177.54 24.392C178.532 24.392 179.324 24.08 179.916 23.456C180.508 22.816 180.828 21.888 180.876 20.672C180.892 20.432 180.9 20.128 180.9 19.76C180.9 19.392 180.892 19.088 180.876 18.848C180.828 17.632 180.508 16.712 179.916 16.088C179.324 15.448 178.532 15.128 177.54 15.128C176.548 15.128 175.748 15.448 175.14 16.088C174.548 16.712 174.236 17.632 174.204 18.848C174.188 19.088 174.18 19.392 174.18 19.76C174.18 20.128 174.188 20.432 174.204 20.672C174.236 21.888 174.548 22.816 175.14 23.456C175.748 24.08 176.548 24.392 177.54 24.392ZM190.412 26C189.516 26 188.788 25.832 188.228 25.496C187.668 25.144 187.26 24.656 187.004 24.032C186.748 23.392 186.62 22.64 186.62 21.776V15.44H184.748C184.588 15.44 184.452 15.392 184.34 15.296C184.244 15.184 184.196 15.048 184.196 14.888V14.072C184.196 13.912 184.244 13.784 184.34 13.688C184.452 13.576 184.588 13.52 184.748 13.52H186.62V9.512C186.62 9.352 186.668 9.224 186.764 9.128C186.876 9.016 187.012 8.96 187.172 8.96H188.3C188.46 8.96 188.588 9.016 188.684 9.128C188.796 9.224 188.852 9.352 188.852 9.512V13.52H191.828C191.988 13.52 192.116 13.576 192.212 13.688C192.324 13.784 192.38 13.912 192.38 14.072V14.888C192.38 15.048 192.324 15.184 192.212 15.296C192.116 15.392 191.988 15.44 191.828 15.44H188.852V21.608C188.852 22.36 188.98 22.952 189.236 23.384C189.492 23.816 189.948 24.032 190.604 24.032H192.068C192.228 24.032 192.356 24.088 192.452 24.2C192.564 24.296 192.62 24.424 192.62 24.584V25.448C192.62 25.608 192.564 25.744 192.452 25.856C192.356 25.952 192.228 26 192.068 26H190.412ZM203.989 26C203.813 26 203.669 25.944 203.557 25.832C203.445 25.72 203.389 25.576 203.389 25.4V12.536H199.021C198.861 12.536 198.725 12.48 198.613 12.368C198.501 12.256 198.445 12.12 198.445 11.96V9.8C198.445 9.624 198.501 9.48 198.613 9.368C198.725 9.256 198.861 9.2 199.021 9.2H211.597C211.773 9.2 211.917 9.256 212.029 9.368C212.141 9.48 212.197 9.624 212.197 9.8V11.96C212.197 12.12 212.141 12.256 212.029 12.368C211.917 12.48 211.773 12.536 211.597 12.536H207.253V25.4C207.253 25.576 207.197 25.72 207.085 25.832C206.973 25.944 206.829 26 206.653 26H203.989ZM215.229 26.24C214.381 26.24 213.621 26.08 212.949 25.76C212.277 25.424 211.741 24.976 211.341 24.416C210.941 23.856 210.741 23.232 210.741 22.544C210.741 21.408 211.197 20.512 212.109 19.856C213.037 19.2 214.253 18.752 215.757 18.512L218.901 18.056V17.624C218.901 17 218.757 16.52 218.469 16.184C218.181 15.848 217.677 15.68 216.957 15.68C216.429 15.68 216.005 15.784 215.685 15.992C215.365 16.2 215.117 16.472 214.941 16.808C214.813 17.016 214.629 17.12 214.389 17.12H212.109C211.933 17.12 211.797 17.072 211.701 16.976C211.605 16.864 211.565 16.736 211.581 16.592C211.581 16.32 211.685 16 211.893 15.632C212.101 15.264 212.421 14.904 212.853 14.552C213.285 14.184 213.837 13.88 214.509 13.64C215.181 13.4 216.005 13.28 216.981 13.28C217.989 13.28 218.853 13.4 219.573 13.64C220.293 13.88 220.869 14.216 221.301 14.648C221.733 15.08 222.053 15.584 222.261 16.16C222.469 16.72 222.573 17.328 222.573 17.984V25.4C222.573 25.576 222.517 25.72 222.405 25.832C222.293 25.944 222.149 26 221.973 26H219.621C219.461 26 219.325 25.944 219.213 25.832C219.101 25.72 219.045 25.576 219.045 25.4V24.512C218.837 24.816 218.557 25.104 218.205 25.376C217.853 25.632 217.429 25.84 216.933 26C216.453 26.16 215.885 26.24 215.229 26.24ZM216.189 23.744C216.717 23.744 217.189 23.632 217.605 23.408C218.021 23.184 218.349 22.84 218.589 22.376C218.829 21.912 218.949 21.328 218.949 20.624V20.216L216.717 20.576C215.853 20.72 215.221 20.936 214.821 21.224C214.421 21.512 214.221 21.864 214.221 22.28C214.221 22.584 214.309 22.848 214.485 23.072C214.677 23.296 214.925 23.464 215.229 23.576C215.533 23.688 215.853 23.744 216.189 23.744ZM225.503 26C225.343 26 225.207 25.944 225.095 25.832C224.983 25.72 224.927 25.576 224.927 25.4V14.12C224.927 13.944 224.983 13.8 225.095 13.688C225.207 13.576 225.343 13.52 225.503 13.52H227.903C228.079 13.52 228.223 13.576 228.335 13.688C228.447 13.8 228.503 13.944 228.503 14.12V25.4C228.503 25.576 228.447 25.72 228.335 25.832C228.223 25.944 228.079 26 227.903 26H225.503ZM225.431 11.6C225.271 11.6 225.135 11.544 225.023 11.432C224.911 11.32 224.855 11.176 224.855 11V9.08C224.855 8.904 224.911 8.76 225.023 8.648C225.135 8.52 225.271 8.456 225.431 8.456H227.951C228.127 8.456 228.271 8.52 228.383 8.648C228.511 8.76 228.575 8.904 228.575 9.08V11C228.575 11.176 228.511 11.32 228.383 11.432C228.271 11.544 228.127 11.6 227.951 11.6H225.431ZM234.393 26C234.169 26 233.993 25.944 233.865 25.832C233.753 25.72 233.665 25.576 233.601 25.4L230.169 14.288C230.137 14.208 230.121 14.128 230.121 14.048C230.121 13.904 230.169 13.784 230.265 13.688C230.377 13.576 230.505 13.52 230.649 13.52H232.761C232.969 13.52 233.129 13.576 233.241 13.688C233.353 13.8 233.425 13.904 233.457 14L235.641 21.416L237.969 14.048C238.001 13.936 238.073 13.824 238.185 13.712C238.313 13.584 238.489 13.52 238.713 13.52H240.081C240.305 13.52 240.473 13.584 240.585 13.712C240.713 13.824 240.793 13.936 240.825 14.048L243.153 21.416L245.337 14C245.353 13.904 245.417 13.8 245.529 13.688C245.657 13.576 245.817 13.52 246.009 13.52H248.121C248.265 13.52 248.385 13.576 248.481 13.688C248.593 13.784 248.649 13.904 248.649 14.048C248.649 14.128 248.641 14.208 248.625 14.288L245.169 25.4C245.121 25.576 245.033 25.72 244.905 25.832C244.793 25.944 244.625 26 244.401 26H242.553C242.329 26 242.153 25.944 242.025 25.832C241.897 25.72 241.801 25.576 241.737 25.4L239.409 18.296L237.033 25.4C236.985 25.576 236.897 25.72 236.769 25.832C236.641 25.944 236.465 26 236.241 26H234.393ZM253.581 26.24C252.733 26.24 251.973 26.08 251.301 25.76C250.629 25.424 250.093 24.976 249.693 24.416C249.293 23.856 249.093 23.232 249.093 22.544C249.093 21.408 249.549 20.512 250.461 19.856C251.389 19.2 252.605 18.752 254.109 18.512L257.253 18.056V17.624C257.253 17 257.109 16.52 256.821 16.184C256.533 15.848 256.029 15.68 255.309 15.68C254.781 15.68 254.357 15.784 254.037 15.992C253.717 16.2 253.469 16.472 253.293 16.808C253.165 17.016 252.981 17.12 252.741 17.12H250.461C250.285 17.12 250.149 17.072 250.053 16.976C249.957 16.864 249.917 16.736 249.933 16.592C249.933 16.32 250.037 16 250.245 15.632C250.453 15.264 250.773 14.904 251.205 14.552C251.637 14.184 252.189 13.88 252.861 13.64C253.533 13.4 254.357 13.28 255.333 13.28C256.341 13.28 257.205 13.4 257.925 13.64C258.645 13.88 259.221 14.216 259.653 14.648C260.085 15.08 260.405 15.584 260.613 16.16C260.821 16.72 260.925 17.328 260.925 17.984V25.4C260.925 25.576 260.869 25.72 260.757 25.832C260.645 25.944 260.501 26 260.325 26H257.973C257.813 26 257.677 25.944 257.565 25.832C257.453 25.72 257.397 25.576 257.397 25.4V24.512C257.189 24.816 256.909 25.104 256.557 25.376C256.205 25.632 255.781 25.84 255.285 26C254.805 26.16 254.237 26.24 253.581 26.24ZM254.541 23.744C255.069 23.744 255.541 23.632 255.957 23.408C256.373 23.184 256.701 22.84 256.941 22.376C257.181 21.912 257.301 21.328 257.301 20.624V20.216L255.069 20.576C254.205 20.72 253.573 20.936 253.173 21.224C252.773 21.512 252.573 21.864 252.573 22.28C252.573 22.584 252.661 22.848 252.837 23.072C253.029 23.296 253.277 23.464 253.581 23.576C253.885 23.688 254.205 23.744 254.541 23.744ZM263.855 26C263.695 26 263.559 25.944 263.447 25.832C263.335 25.72 263.279 25.576 263.279 25.4V14.12C263.279 13.944 263.335 13.8 263.447 13.688C263.559 13.576 263.695 13.52 263.855 13.52H266.207C266.383 13.52 266.527 13.576 266.639 13.688C266.751 13.8 266.807 13.944 266.807 14.12V15.056C267.223 14.544 267.759 14.12 268.415 13.784C269.071 13.448 269.871 13.28 270.815 13.28C271.759 13.28 272.583 13.496 273.287 13.928C274.007 14.344 274.567 14.96 274.967 15.776C275.383 16.576 275.591 17.552 275.591 18.704V25.4C275.591 25.576 275.527 25.72 275.399 25.832C275.287 25.944 275.151 26 274.991 26H272.447C272.271 26 272.127 25.944 272.015 25.832C271.903 25.72 271.847 25.576 271.847 25.4V18.848C271.847 18 271.639 17.344 271.223 16.88C270.823 16.4 270.231 16.16 269.447 16.16C268.695 16.16 268.095 16.4 267.647 16.88C267.199 17.344 266.975 18 266.975 18.848V25.4C266.975 25.576 266.919 25.72 266.807 25.832C266.695 25.944 266.559 26 266.399 26H263.855Z" fill="#171719"/>
<defs>
<clipPath id="clip0_15605_67883">
<rect width="54" height="36" fill="white"/>
</clipPath>
</defs>
</svg>
