<svg width="19" height="19" viewBox="0 0 19 19" fill="none" xmlns="http://www.w3.org/2000/svg">
<path fill-rule="evenodd" clip-rule="evenodd" d="M1.28825 12.7977C0.873278 13.5654 0.532863 14.1951 0.314993 14.7002C0.105271 15.1865 -0.0836581 15.7524 0.0385984 16.3207C0.200293 17.0724 0.71236 17.7011 1.41578 18.0116C1.94763 18.2464 2.54004 18.1759 3.05864 18.0689C3.5974 17.9578 4.28301 17.7519 5.11878 17.5009L9.33873 16.2335L13.5587 17.5009C14.3945 17.7519 15.0801 17.9578 15.6188 18.0689C16.1374 18.1759 16.7298 18.2464 17.2617 18.0116C17.9651 17.7011 18.4772 17.0724 18.6389 16.3207C18.7611 15.7524 18.5722 15.1865 18.3625 14.7002C18.1446 14.1951 17.8042 13.5654 17.3892 12.7978L11.519 1.93796C11.3064 1.54453 11.1181 1.19613 10.9426 0.932237C10.7666 0.667613 10.5181 0.350662 10.131 0.173079C9.628 -0.0576422 9.04946 -0.0576422 8.54651 0.173079C8.15939 0.350662 7.9109 0.667613 7.73488 0.932237C7.55935 1.19613 7.37105 1.54453 7.15842 1.93796L1.28825 12.7977ZM2.55745 16.3906C2.04497 16.5445 1.6026 16.0014 1.85705 15.5307L9.2507 1.85247C9.26395 1.82796 9.27671 1.81827 9.28637 1.81276C9.29876 1.80569 9.31682 1.80002 9.33867 1.80002C9.36053 1.80002 9.37859 1.80569 9.39098 1.81276C9.40064 1.81827 9.41339 1.82796 9.42665 1.85247L16.8203 15.5307C17.0747 16.0014 16.6324 16.5445 16.1199 16.3906L10.2387 14.6244V9.29703C10.2387 8.79997 9.83579 8.39703 9.33873 8.39703C8.84168 8.39703 8.43873 8.79997 8.43873 9.29703V14.6244L2.55745 16.3906Z" fill="#171719"/>
</svg>
