<svg width="19" height="19" viewBox="0 0 19 19" fill="none" xmlns="http://www.w3.org/2000/svg">
<path fill-rule="evenodd" clip-rule="evenodd" d="M17.3892 5.37073C17.8042 4.60306 18.1446 3.97332 18.3625 3.46821C18.5722 2.98199 18.7611 2.41611 18.6389 1.84775C18.4772 1.09605 17.9651 0.467337 17.2617 0.156848C16.7298 -0.0779112 16.1374 -0.00742639 15.6188 0.0995448C15.0801 0.210672 14.3944 0.416584 13.5587 0.667593L9.33873 1.93491L5.11876 0.667586C4.283 0.416582 3.59739 0.210671 3.05864 0.0995448C2.54003 -0.00742639 1.94762 -0.0779112 1.41577 0.156848C0.712357 0.467337 0.200291 1.09605 0.0385952 1.84775C-0.083662 2.41611 0.105267 2.98199 0.314989 3.46821C0.532856 3.97331 0.873262 4.60304 1.28822 5.37068L7.15841 16.2305C7.37105 16.6239 7.55935 16.9723 7.73488 17.2362C7.9109 17.5008 8.15939 17.8178 8.5465 17.9954C9.04946 18.2261 9.628 18.2261 10.131 17.9954C10.5181 17.8178 10.7666 17.5008 10.9426 17.2362C11.1181 16.9723 11.3064 16.6239 11.519 16.2305L17.3892 5.37073ZM16.12 1.77782C16.6325 1.62392 17.0749 2.16705 16.8204 2.63778L9.42676 16.316C9.41351 16.3405 9.40075 16.3502 9.39109 16.3557C9.3787 16.3628 9.36064 16.3684 9.33879 16.3684C9.31693 16.3684 9.29887 16.3628 9.28648 16.3557C9.27682 16.3502 9.26406 16.3405 9.25081 16.316L1.85716 2.63778C1.60271 2.16705 2.04508 1.62392 2.55756 1.77782L8.43873 3.54403V8.87143C8.43873 9.36848 8.84167 9.77143 9.33873 9.77143C9.83578 9.77143 10.2387 9.36848 10.2387 8.87143V3.54406L16.12 1.77782Z" fill="#171719"/>
</svg>
